<?xml version="1.0" standalone="no"?>
<!DOCTYPE svg PUBLIC "-//W3C//DTD SVG 20010904//EN"
 "http://www.w3.org/TR/2001/REC-SVG-20010904/DTD/svg10.dtd">
<svg version="1.0" xmlns="http://www.w3.org/2000/svg"
 width="1001.000000pt" height="1001.000000pt" viewBox="0 0 1001.000000 1001.000000"
 preserveAspectRatio="xMidYMid meet">
<metadata>
Created by potrace 1.11, written by Peter Selinger 2001-2013
</metadata>
<g transform="translate(0.000000,1001.000000) scale(0.100000,-0.100000)"
fill="#000000" stroke="none">
<path d="M4415 9844 c-184 -38 -327 -163 -394 -345 l-9 -26 -429 0 c-415 -1
-473 -3 -613 -24 -449 -66 -721 -288 -879 -716 -28 -76 -53 -161 -65 -223 -43
-219 -51 -324 -51 -665 0 -254 1 -273 21 -316 12 -25 167 -221 345 -435 397
-477 370 -448 432 -475 51 -22 59 -23 472 -24 231 0 442 3 469 8 149 26 194
100 197 323 2 176 22 218 114 246 28 8 172 13 482 14 369 2 455 5 516 18 154
34 220 111 262 301 l7 30 25 -30 c14 -16 45 -52 68 -80 23 -27 60 -71 81 -97
51 -61 85 -86 144 -109 69 -26 153 -31 503 -32 l307 0 38 -45 c20 -24 46 -55
57 -68 11 -13 92 -111 180 -217 164 -198 191 -224 260 -247 53 -19 898 -20
961 -2 63 18 105 52 133 107 l26 49 0 301 c0 275 -6 423 -21 515 -18 116 -25
152 -46 230 -30 113 -43 151 -90 260 -20 45 -82 151 -105 180 -49 62 -210 254
-392 469 -119 140 -240 284 -270 320 -131 159 -256 258 -408 321 -89 37 -275
86 -354 94 -30 3 -81 8 -114 12 -33 3 -239 7 -457 7 l-396 0 -87 104 c-140
167 -191 209 -292 244 -86 29 -108 32 -338 35 -163 2 -238 -1 -290 -12z m1190
-844 c167 -35 283 -145 355 -337 9 -23 19 -33 34 -34 11 0 235 -2 496 -3 469
-3 506 -5 655 -39 117 -27 281 -97 383 -164 31 -20 59 -40 62 -43 3 -3 30 -26
62 -53 57 -48 145 -158 185 -233 54 -100 118 -297 139 -428 3 -21 8 -48 10
-60 2 -11 7 -46 10 -76 3 -30 7 -66 10 -80 3 -14 7 -160 9 -324 4 -376 -2
-403 -103 -448 -41 -19 -69 -20 -478 -19 -254 0 -441 4 -451 10 -10 5 -21 8
-26 8 -4 -1 -22 10 -41 25 -48 39 -63 91 -64 228 -1 200 -20 248 -113 289 -66
29 -91 30 -558 31 -331 2 -445 5 -492 16 -143 33 -191 91 -224 269 -10 50 -19
99 -21 110 -2 11 -8 44 -14 74 -5 30 -18 60 -27 67 -19 14 -91 18 -109 6 -16
-11 -33 -45 -39 -83 -56 -334 -88 -396 -222 -435 -74 -22 -113 -23 -574 -24
-310 -1 -416 -4 -450 -14 -136 -42 -157 -82 -162 -302 -4 -153 -15 -195 -62
-232 -51 -41 -90 -44 -526 -43 -415 0 -419 0 -466 23 -38 18 -53 33 -73 73
-24 48 -24 55 -24 285 0 129 3 284 7 343 6 98 31 290 42 327 2 8 7 29 10 47 9
55 72 238 104 302 74 149 174 262 314 355 156 103 299 160 482 191 11 2 36 7
55 10 19 4 253 8 519 10 l484 3 23 57 c78 190 210 300 387 321 29 4 53 7 54 8
10 8 381 -4 428 -14z"/>
<path d="M5130 8343 c-92 -24 -166 -76 -215 -153 -26 -42 -61 -133 -68 -179
-3 -18 -7 -34 -9 -36 -2 -2 -246 -5 -543 -7 -599 -5 -589 -4 -733 -74 -193
-94 -303 -304 -316 -604 l-4 -90 32 0 33 0 2 63 c7 258 98 458 255 556 46 28
133 62 201 77 17 4 274 8 573 9 299 1 546 6 549 9 4 4 8 14 9 24 20 140 72
247 142 295 68 47 125 60 282 61 213 3 294 -17 363 -88 54 -56 84 -130 112
-281 4 -20 12 -20 541 -19 610 1 655 -3 797 -65 67 -29 152 -117 186 -193 50
-111 78 -251 80 -410 1 -35 3 -38 31 -38 27 0 30 3 31 33 1 17 1 34 1 37 -4
72 -14 179 -17 190 -2 8 -6 26 -9 40 -20 117 -79 240 -149 311 -60 60 -127 97
-238 130 -72 22 -92 23 -638 28 l-564 6 -4 25 c-20 133 -101 263 -193 310 -77
39 -132 48 -301 48 -108 0 -183 -5 -219 -15z"/>
<path d="M5058 6775 c-2 -2 -42 -6 -89 -10 -47 -3 -94 -7 -105 -9 -10 -2 -44
-7 -74 -11 -149 -20 -363 -99 -464 -172 -80 -57 -577 -471 -614 -512 -94 -101
-147 -227 -169 -403 -9 -72 -9 -1388 0 -1458 18 -138 39 -217 84 -310 113
-237 320 -387 621 -451 l52 -11 0 -106 c0 -160 21 -211 96 -237 48 -16 703
-17 751 -1 24 8 262 194 347 271 6 6 52 44 101 85 133 111 133 110 145 141 8
17 112 111 273 246 144 120 292 247 328 283 94 92 144 198 173 364 18 106 19
1519 1 1642 -29 197 -97 323 -230 429 -139 111 -335 178 -630 216 -75 10 -589
22 -597 14z m537 -49 c471 -46 750 -205 845 -482 43 -124 46 -180 44 -969 -1
-672 -3 -758 -18 -830 -64 -292 -260 -458 -631 -534 -54 -11 -102 -18 -107
-15 -10 6 -9 17 -11 -146 -3 -149 -12 -177 -67 -200 -21 -9 -128 -12 -373 -12
-451 0 -430 -10 -433 210 -1 73 -4 136 -8 139 -4 4 -19 8 -34 10 -156 18 -378
100 -477 177 -129 99 -219 275 -241 471 -8 79 -8 1443 0 1520 28 253 144 421
362 529 64 31 202 80 256 90 30 5 141 25 175 31 16 3 71 7 123 11 52 3 96 8
98 9 4 4 446 -4 497 -9z"/>
<path d="M5005 6363 c-273 -40 -414 -139 -486 -339 -21 -58 -22 -75 -23 -709
-1 -443 2 -671 9 -715 27 -152 138 -293 271 -344 117 -44 236 -64 459 -75 19
-1 20 -8 20 -149 0 -140 1 -147 20 -147 19 0 20 7 21 143 1 79 4 145 6 148 3
2 38 6 79 9 302 19 467 74 565 189 43 50 101 166 110 221 13 77 11 1294 -2
1367 -34 182 -161 314 -354 370 -36 10 -87 21 -115 24 -27 4 -54 9 -60 12 -20
13 -430 9 -520 -5z m505 -37 c14 -2 43 -7 65 -10 74 -12 160 -38 214 -64 102
-50 188 -160 222 -282 14 -51 20 -1216 7 -1330 -8 -73 -28 -124 -72 -190 -106
-158 -300 -224 -661 -224 -330 0 -507 46 -621 161 -64 65 -103 142 -118 232
-13 74 -14 1254 -2 1331 18 116 116 250 222 303 62 31 197 65 294 73 41 4 76
8 78 9 5 4 343 -4 372 -9z"/>
<path d="M5140 5973 c-101 -17 -159 -59 -176 -128 -4 -16 -7 -282 -7 -590 0
-607 -1 -590 55 -642 45 -42 109 -55 273 -55 100 0 124 2 190 16 47 10 75 27
102 62 l28 37 3 584 c2 508 0 587 -13 613 -27 53 -65 80 -133 96 -32 8 -285
13 -322 7z m-85 -539 c13 -27 15 -96 15 -418 0 -226 -4 -386 -9 -386 -20 0
-61 63 -62 93 -1 51 -1 667 0 720 1 45 2 46 21 35 11 -7 27 -27 35 -44z"/>
<path d="M2525 6359 c-247 -70 -472 -135 -500 -143 -27 -8 -184 -53 -349 -101
-176 -50 -333 -101 -382 -124 -71 -34 -168 -98 -216 -144 -7 -7 -101 -86 -208
-177 -311 -262 -299 -251 -344 -345 -54 -111 -60 -153 -62 -445 -3 -289 3
-347 43 -460 22 -63 37 -85 92 -141 69 -69 157 -124 264 -165 49 -19 490 -148
1057 -309 8 -3 31 -8 50 -13 19 -5 141 -40 270 -77 129 -37 251 -67 272 -67
37 2 88 18 98 30 5 7 304 261 449 382 95 79 92 65 93 418 0 169 -3 323 -7 343
-4 22 -20 50 -40 69 -29 28 -58 39 -232 86 -109 30 -207 56 -218 58 -12 2 -52
13 -90 24 -58 17 -95 27 -135 37 -3 0 -30 7 -60 14 -30 8 -61 17 -68 21 -8 4
38 21 110 40 67 17 132 37 143 43 16 8 157 121 260 209 11 9 83 70 159 135 88
75 147 132 159 156 18 36 20 59 19 355 -1 330 -4 359 -44 394 -51 44 -100 35
-583 -103z m554 68 c28 -23 32 -70 32 -363 0 -384 4 -375 -169 -420 -141 -36
-950 -253 -1042 -279 -47 -13 -90 -32 -97 -42 -17 -23 -13 -80 7 -97 8 -8 67
-28 130 -44 171 -45 600 -160 640 -172 45 -13 397 -106 432 -114 43 -10 85
-52 93 -93 11 -59 7 -605 -4 -636 -15 -38 -53 -60 -98 -54 -21 2 -387 105
-813 227 -863 247 -923 269 -1052 381 -43 39 -96 136 -114 212 -19 82 -28 503
-13 617 26 189 97 290 271 384 63 34 221 92 276 102 12 3 42 11 65 19 23 7
130 38 237 68 240 68 211 60 530 152 146 42 272 78 280 80 8 2 85 24 170 49
156 46 206 50 239 23z"/>
<path d="M2555 5959 c-110 -32 -216 -63 -235 -69 -47 -14 -265 -76 -370 -105
-405 -112 -478 -140 -528 -201 -44 -53 -50 -92 -49 -309 0 -332 16 -351 362
-452 105 -30 197 -57 205 -59 8 -2 40 -10 70 -19 30 -9 62 -18 70 -20 8 -2
125 -36 260 -74 135 -39 270 -78 300 -87 30 -9 68 -20 84 -25 36 -11 58 4 36
25 -8 7 -152 53 -320 101 -168 48 -428 123 -579 166 -288 83 -350 107 -390
149 -48 50 -54 82 -55 280 -1 102 2 204 7 228 14 70 95 134 204 161 21 5 63
17 93 26 30 9 62 18 70 20 8 2 71 20 140 40 351 102 506 147 520 150 89 21
310 91 314 100 12 33 -19 29 -209 -26z"/>
<path d="M7504 6483 c-21 -4 -160 -115 -479 -385 -73 -61 -102 -92 -106 -114
-4 -16 -7 -170 -8 -341 -1 -433 -15 -409 269 -482 305 -79 576 -154 583 -160
4 -4 -39 -18 -95 -31 -57 -13 -122 -32 -144 -41 -53 -22 -562 -447 -589 -491
-19 -31 -20 -53 -22 -363 -2 -355 0 -377 49 -409 40 -26 113 -21 248 17 309
89 626 179 640 182 8 2 40 11 70 20 30 9 62 18 70 20 8 2 103 29 210 60 107
31 202 58 210 60 131 29 365 115 435 160 46 29 519 419 593 489 48 45 100 127
123 193 36 105 41 158 42 398 0 247 -7 322 -34 410 -28 93 -76 164 -146 220
-110 87 -203 127 -517 216 -116 33 -242 70 -281 81 -38 11 -74 21 -80 22 -5 1
-37 10 -70 20 -33 10 -67 20 -75 21 -8 2 -134 38 -280 80 -146 42 -272 78
-280 80 -8 2 -62 18 -120 35 -101 30 -172 41 -216 33z m146 -58 c30 -9 69 -20
85 -24 17 -5 284 -82 595 -171 311 -89 581 -166 600 -171 19 -5 42 -12 50 -14
8 -2 38 -10 65 -18 92 -26 239 -90 299 -130 117 -79 171 -159 200 -294 19 -94
20 -551 0 -643 -21 -100 -52 -165 -103 -218 -77 -80 -171 -135 -308 -181 -50
-17 -966 -282 -1080 -312 -47 -13 -76 -21 -292 -83 -202 -58 -229 -63 -263
-45 -43 23 -48 61 -48 356 0 153 3 295 7 316 13 81 10 79 559 226 666 177 735
197 745 213 15 23 10 84 -8 101 -15 13 -145 51 -293 87 -19 4 -143 37 -275 73
-318 86 -501 136 -604 163 -128 33 -131 41 -131 399 0 155 3 296 6 314 4 17
18 42 32 56 28 28 63 28 162 0z"/>
<path d="M7796 6005 c-2 -7 1 -18 7 -23 11 -9 124 -47 171 -57 11 -2 44 -11
71 -19 28 -8 160 -46 295 -85 135 -39 259 -75 275 -80 42 -14 247 -72 265 -76
8 -2 27 -8 43 -14 15 -6 27 -9 27 -6 0 8 96 -38 129 -63 61 -45 69 -82 71
-296 1 -197 -5 -235 -42 -288 -27 -39 -96 -77 -191 -105 -76 -22 -612 -177
-961 -278 -137 -39 -177 -58 -158 -77 4 -4 71 10 147 33 77 22 147 42 155 44
8 1 96 27 195 55 99 29 209 61 245 70 242 66 463 134 506 156 60 30 107 75
127 126 19 46 24 421 6 492 -13 53 -58 102 -124 135 -34 17 -729 224 -825 246
-9 1 -54 14 -100 28 -47 13 -119 34 -160 46 -41 12 -96 28 -122 35 -39 12 -47
12 -52 1z"/>
<path d="M2076 3453 c-2 -2 -10 -6 -18 -7 -95 -17 -158 -86 -174 -191 -13 -91
-6 -605 11 -706 2 -13 6 -46 10 -74 16 -134 59 -296 116 -433 53 -129 106
-216 204 -332 124 -148 289 -344 311 -370 12 -14 100 -117 195 -230 181 -215
199 -233 291 -305 94 -74 289 -161 402 -181 17 -2 38 -7 46 -9 29 -8 75 -16
135 -21 33 -4 67 -8 75 -9 8 -2 200 -4 425 -4 l410 -1 65 -78 c162 -192 224
-241 360 -283 69 -21 94 -23 295 -24 121 0 243 4 270 8 70 11 166 48 209 80
76 56 143 141 182 233 l28 64 446 1 c245 0 461 2 480 4 44 4 124 14 170 22 74
11 220 52 292 82 358 149 587 519 652 1051 15 121 19 205 21 440 2 254 -5 324
-35 380 -11 20 -490 594 -662 791 -32 38 -66 65 -101 80 l-52 24 -455 0 c-513
0 -516 0 -584 -75 -47 -52 -58 -100 -61 -257 -4 -164 -16 -196 -90 -233 l-50
-25 -460 -2 c-480 -2 -545 -7 -626 -49 -69 -35 -126 -119 -150 -221 -6 -26
-13 -54 -15 -61 -2 -8 -50 42 -108 114 -174 212 -185 216 -667 216 l-336 0
-85 102 c-48 55 -151 177 -229 270 -124 147 -150 172 -198 195 l-56 26 -442 1
c-243 1 -444 0 -447 -3z m1530 -847 c58 -11 100 -42 123 -89 16 -35 20 -69 24
-192 4 -166 18 -213 74 -253 67 -47 107 -51 546 -52 521 -1 532 -2 617 -45 83
-42 115 -102 144 -271 9 -49 18 -100 21 -114 3 -14 8 -40 11 -58 8 -40 37 -62
82 -62 64 0 81 24 97 130 4 25 9 54 11 65 2 11 7 34 10 50 33 182 77 245 198
284 56 17 98 19 516 20 567 2 591 6 649 111 22 39 24 57 28 193 3 121 8 159
23 193 21 45 64 77 119 89 57 12 851 9 897 -4 55 -15 90 -47 110 -101 29 -80
21 -586 -12 -810 -3 -19 -7 -49 -10 -67 -24 -182 -117 -427 -206 -548 -155
-209 -419 -359 -723 -410 -16 -3 -43 -8 -60 -11 -16 -4 -237 -8 -490 -10 -253
-1 -477 -3 -497 -3 -32 -1 -37 -5 -43 -30 -11 -50 -74 -159 -126 -216 -32 -35
-73 -65 -112 -84 -96 -47 -143 -54 -362 -55 -236 0 -296 8 -393 56 -100 50
-187 158 -241 300 -10 26 -15 28 -63 28 -627 5 -920 9 -948 14 -19 4 -60 11
-90 17 -277 52 -549 213 -685 404 -113 160 -193 391 -220 640 -4 28 -8 61 -11
75 -3 14 -8 171 -10 350 -7 502 -39 476 579 474 211 -1 401 -4 423 -8z"/>
<path d="M3149 2058 c-1 -24 2 -130 5 -146 2 -10 7 -39 10 -65 11 -74 14 -85
36 -152 25 -76 79 -167 128 -218 78 -81 207 -145 324 -163 29 -4 56 -9 61 -10
4 -1 238 -2 520 -3 l512 -1 11 -58 c28 -146 123 -263 249 -307 66 -23 367 -30
453 -10 74 17 144 57 183 103 42 51 96 167 104 225 l7 47 517 0 c284 1 534 3
556 6 164 21 283 71 365 153 109 110 158 252 176 519 l6 92 -33 0 c-34 0 -34
0 -35 -47 -4 -231 -64 -420 -162 -519 -54 -53 -143 -98 -237 -120 -64 -15
-431 -22 -1190 -24 -6 0 -18 -35 -27 -78 -33 -162 -105 -254 -222 -287 -69
-20 -294 -27 -385 -13 -149 24 -238 126 -274 315 -6 34 -16 63 -22 63 -5 0
-251 2 -545 4 -294 1 -548 6 -565 10 -79 18 -163 50 -209 81 -70 47 -77 53
-119 108 -84 110 -131 271 -136 465 -1 40 -3 42 -31 42 -17 0 -30 -5 -31 -12z"/>
</g>
</svg>
